<svg width="125" height="32" viewBox="0 0 125 32" fill="none" xmlns="http://www.w3.org/2000/svg">
<g clip-path="url(#clip0_5_82)">
<path fill-rule="evenodd" clip-rule="evenodd" d="M78.26 5.56H81.26L81.23 23.3H83.23V25.77H81.3C80.8847 25.8011 80.4673 25.7491 80.0724 25.6168C79.6774 25.4846 79.3129 25.2749 79 25C78.7342 24.6984 78.5317 24.3465 78.4046 23.9651C78.2775 23.5838 78.2283 23.1807 78.26 22.78V5.56ZM72.48 11.75C73.2866 12.0757 74.0033 12.5901 74.57 13.25C75.1646 13.9305 75.6107 14.7274 75.88 15.59C76.2038 16.5738 76.3626 17.6044 76.35 18.64C76.361 19.6853 76.2023 20.7255 75.88 21.72C75.5988 22.5795 75.1501 23.3748 74.56 24.06C73.9841 24.705 73.2696 25.211 72.47 25.54C71.6167 25.889 70.7018 26.0625 69.78 26.05C68.8484 26.0627 67.9237 25.8893 67.06 25.54C66.2707 25.208 65.5666 24.702 65 24.06C64.4099 23.3748 63.9612 22.5795 63.68 21.72C63.3577 20.7255 63.199 19.6853 63.21 18.64C63.1974 17.6044 63.3562 16.5738 63.68 15.59C63.9522 14.7266 64.4018 13.9296 65 13.25C65.5603 12.5918 66.2701 12.0775 67.07 11.75C67.932 11.3938 68.8574 11.2169 69.79 11.23C70.7129 11.2159 71.6288 11.3929 72.48 11.75ZM73.0119 21.3486C73.1733 20.863 73.2372 20.3504 73.2 19.84V17.44C73.2387 16.9341 73.1754 16.4256 73.014 15.9447C72.8525 15.4637 72.5961 15.02 72.26 14.64C71.5854 14.023 70.7042 13.6809 69.79 13.6809C68.8758 13.6809 67.9946 14.023 67.32 14.64C66.9819 15.0188 66.7243 15.4623 66.5627 15.9436C66.4012 16.4249 66.339 16.934 66.38 17.44V19.84C66.3406 20.3505 66.4035 20.8638 66.5649 21.3497C66.7263 21.8356 66.983 22.2845 67.32 22.67C68.0037 23.2685 68.8814 23.5984 69.79 23.5984C70.6986 23.5984 71.5763 23.2685 72.26 22.67C72.5951 22.2833 72.8506 21.8343 73.0119 21.3486ZM56.55 14.69L54.85 14.34C54.0242 14.2217 53.2351 13.9211 52.54 13.46C52.2863 13.2373 52.0874 12.959 51.9591 12.6467C51.8307 12.3345 51.7763 11.9968 51.8 11.66C51.7788 11.2922 51.8511 10.925 52.0103 10.5928C52.1694 10.2605 52.4101 9.97401 52.71 9.76C53.4687 9.2755 54.3615 9.0444 55.26 9.1C56.1831 9.0697 57.0997 9.26537 57.93 9.67C58.6319 10.0505 59.248 10.5713 59.74 11.2L61.91 9.29C61.185 8.3694 60.2531 7.63279 59.19 7.14C58.0098 6.60714 56.7245 6.34736 55.43 6.38C54.4894 6.36457 53.5519 6.49271 52.65 6.76C51.883 6.98398 51.1665 7.3541 50.54 7.85C49.9634 8.31159 49.5014 8.90026 49.19 9.57C48.8695 10.2798 48.709 11.0513 48.72 11.83C48.6863 12.4949 48.7936 13.1593 49.0349 13.7798C49.2762 14.4002 49.646 14.9626 50.12 15.43C51.3237 16.4215 52.7831 17.0524 54.33 17.25L56.03 17.55C56.8875 17.6603 57.6976 18.0065 58.37 18.55C58.5866 18.7848 58.754 19.0606 58.8622 19.3612C58.9704 19.6618 59.0173 19.981 59 20.3C59.0178 20.7151 58.9426 21.129 58.78 21.5113C58.6173 21.8937 58.3714 22.2349 58.06 22.51C57.268 23.1128 56.2825 23.4046 55.29 23.33C54.3166 23.3465 53.3532 23.1305 52.48 22.7C51.6243 22.2372 50.8695 21.6083 50.26 20.85L48.12 22.85C48.9479 23.9026 50.0147 24.7428 51.232 25.301C52.4493 25.8593 53.7821 26.1194 55.12 26.06C56.1146 26.0763 57.1059 25.9415 58.06 25.66C58.8539 25.4037 59.5908 24.9962 60.23 24.46C60.8269 23.9464 61.2989 23.3034 61.61 22.58C61.926 21.8094 62.0825 20.9828 62.07 20.15C62.1084 19.4898 62.0091 18.8289 61.7784 18.2092C61.5477 17.5894 61.1907 17.0244 60.73 16.55C59.5474 15.5363 58.0947 14.8899 56.55 14.69ZM122 13.9V5.56H125V25.7H122V23.35H121.86C121.576 24.1654 121.036 24.867 120.32 25.35C119.587 25.8282 118.725 26.0724 117.85 26.05C117.045 26.0917 116.241 25.9379 115.508 25.6018C114.775 25.2658 114.134 24.7574 113.64 24.12C112.562 22.5038 112.042 20.5792 112.16 18.64C112.04 16.71 112.561 14.7944 113.64 13.19C114.127 12.5398 114.764 12.0179 115.498 11.6694C116.231 11.321 117.039 11.1564 117.85 11.19C118.727 11.1661 119.59 11.4141 120.32 11.9C121.047 12.3711 121.59 13.0769 121.86 13.9H122ZM121.752 22.0731C121.916 21.7643 122.001 21.4197 122 21.07V16.23C122.004 15.8825 121.921 15.5397 121.756 15.2335C121.592 14.9274 121.352 14.6681 121.06 14.48C120.383 14.0109 119.573 13.7724 118.75 13.8C118.286 13.7784 117.823 13.8564 117.392 14.0289C116.96 14.2014 116.571 14.4644 116.25 14.8C115.931 15.1527 115.685 15.5647 115.525 16.0125C115.366 16.4603 115.296 16.9352 115.32 17.41V19.85C115.276 20.8174 115.609 21.7641 116.25 22.49C116.572 22.8246 116.961 23.0868 117.392 23.2593C117.823 23.4317 118.286 23.5103 118.75 23.49C119.568 23.5149 120.375 23.288 121.06 22.84C121.351 22.6454 121.588 22.3819 121.752 22.0731ZM105.65 11.23C104.704 11.1702 103.767 11.4426 103 12C102.38 12.5089 101.899 13.1658 101.6 13.91H101.46V11.56H98.46V25.73H101.46V16.24C101.445 15.8702 101.53 15.5033 101.706 15.1778C101.882 14.8522 102.143 14.5801 102.46 14.39C102.764 14.1834 103.103 14.0342 103.46 13.95C103.834 13.8429 104.221 13.789 104.61 13.79C106.403 13.79 107.3 14.9 107.3 17.12V25.73H110.3V16.73C110.395 15.2708 109.954 13.827 109.06 12.67C108.639 12.186 108.113 11.8047 107.522 11.5551C106.931 11.3055 106.291 11.1943 105.65 11.23ZM93 11.77C93.7762 12.1182 94.4609 12.6419 95 13.3C95.5383 13.9571 95.9395 14.7153 96.18 15.53C96.4616 16.4226 96.6 17.3541 96.59 18.29V19.4H86.78V19.87C86.7505 20.8656 87.1091 21.8338 87.78 22.57C88.1511 22.9228 88.592 23.194 89.0742 23.3662C89.5564 23.5385 90.0694 23.6079 90.58 23.57C91.3593 23.5966 92.1299 23.3987 92.8 23C93.4109 22.6095 93.9295 22.0909 94.32 21.48L96.08 23.19C95.518 24.0893 94.7186 24.816 93.77 25.29C92.6768 25.8179 91.4737 26.0784 90.26 26.05C89.3184 26.0667 88.383 25.8933 87.51 25.54C86.7207 25.208 86.0166 24.7021 85.45 24.06C84.8599 23.3748 84.4112 22.5795 84.13 21.72C83.8279 20.7216 83.6796 19.683 83.69 18.64C83.6782 17.6067 83.8266 16.5778 84.13 15.59C84.4023 14.7266 84.8519 13.9296 85.45 13.25C86.0074 12.5931 86.7137 12.0788 87.51 11.75C88.3808 11.3881 89.3172 11.2111 90.26 11.23C91.2017 11.2094 92.1366 11.3936 93 11.77ZM86.81 17.44H93.43L93.46 17.16C93.5085 16.2119 93.2059 15.2791 92.61 14.54C92.3223 14.2083 91.9632 13.9461 91.5597 13.7729C91.1561 13.5997 90.7187 13.5201 90.28 13.54C89.7895 13.5382 89.3036 13.6333 88.85 13.82C88.4345 13.9941 88.0599 14.2529 87.75 14.58C87.4477 14.9225 87.2135 15.3196 87.06 15.75C86.8929 16.2324 86.8084 16.7395 86.81 17.25V17.44Z" fill="white"/>
<path d="M10.74 8.85999C11.38 8.18999 12.3 7.26999 13.43 6.29999C15.9758 3.96558 19.0091 2.22689 22.31 1.20999C22.92 1.05484 23.5667 1.14837 24.1077 1.46999C24.6487 1.79162 25.0399 2.315 25.195 2.92499C25.3502 3.53499 25.2566 4.18164 24.935 4.72268C24.6134 5.26372 24.09 5.65484 23.48 5.80999C20.8967 6.65394 18.526 8.04564 16.53 9.88999C15.7087 10.5993 14.9244 11.3503 14.18 12.14C13.9 12.43 13.68 12.67 13.54 12.83C13.2905 13.1448 12.9896 13.4153 12.65 13.63C12.231 13.8517 11.7557 13.9444 11.2841 13.8964C10.8125 13.8483 10.3657 13.6617 10 13.36C9.61758 13.0339 9.3472 12.5959 9.22699 12.1079C9.10678 11.6199 9.14281 11.1064 9.33 10.64C9.49074 10.2687 9.71778 9.92986 10 9.63999C10.16 9.47999 10.42 9.19999 10.74 8.85999ZM28.49 22.32C28.7722 22.0301 28.9993 21.6913 29.16 21.32C29.3472 20.8536 29.3832 20.3401 29.263 19.8521C29.1428 19.3641 28.8724 18.9261 28.49 18.6C28.1234 18.2962 27.6747 18.1084 27.2011 18.0603C26.7274 18.0122 26.2502 18.1061 25.83 18.33C25.4904 18.5447 25.1895 18.8151 24.94 19.13C24.8 19.29 24.58 19.53 24.3 19.82C23.5729 20.6221 22.8052 21.3864 22 22.11C19.9902 23.9616 17.6016 25.3538 15 26.19C14.39 26.3465 13.8672 26.7389 13.5465 27.2808C13.2258 27.8228 13.1335 28.47 13.29 29.08C13.4465 29.69 13.8389 30.2128 14.3808 30.5335C14.9228 30.8542 15.57 30.9465 16.18 30.79C19.481 29.7731 22.5143 28.0344 25.06 25.7C26.18 24.7 27.11 23.81 27.75 23.14C28.06 22.8 28.32 22.52 28.49 22.32ZM35.26 12.09C34.2385 11.068 33.0256 10.2573 31.6907 9.70416C30.3558 9.15104 28.925 8.86634 27.48 8.86634C26.035 8.86634 24.6042 9.15104 23.2693 9.70416C21.9344 10.2573 20.7215 11.068 19.7 12.09L15.33 16.46C14.1816 17.6071 12.6246 18.2509 11.0015 18.25C9.37834 18.2491 7.82206 17.6034 6.675 16.455C5.52794 15.3066 4.88406 13.7496 4.88499 12.1265C4.88593 10.5033 5.53162 8.94706 6.68 7.79999L10.31 4.16999C10.5365 3.94281 10.7161 3.67323 10.8384 3.37664C10.9608 3.08006 11.0235 2.76229 11.0231 2.44146C11.0226 2.12063 10.9589 1.80304 10.8357 1.50681C10.7125 1.21058 10.5322 0.941525 10.305 0.714994C10.0778 0.488464 9.80824 0.3089 9.51165 0.186554C9.21507 0.0642079 8.89729 0.00147613 8.57647 0.00194042C8.25564 0.00240472 7.93805 0.0660559 7.64182 0.18926C7.34559 0.312464 7.07653 0.492808 6.85 0.719994L3.22 4.34999C2.19832 5.37168 1.38787 6.58459 0.834943 7.91949C0.282012 9.25438 -0.00257872 10.6851 -0.00257874 12.13C-0.00257875 13.5749 0.282011 15.0056 0.834943 16.3405C1.38787 17.6754 2.19832 18.8883 3.22 19.91C4.24169 20.9317 5.4546 21.7421 6.7895 22.2951C8.12439 22.848 9.55512 23.1326 11 23.1326C12.4449 23.1326 13.8756 22.848 15.2105 22.2951C16.5454 21.7421 17.7583 20.9317 18.78 19.91L23.15 15.54C24.3097 14.4564 25.8451 13.8658 27.432 13.8928C29.0189 13.9197 30.5333 14.5621 31.6556 15.6844C32.7779 16.8067 33.4203 18.3211 33.4472 19.908C33.4742 21.4949 32.8836 23.0303 31.8 24.19L28.17 27.83C27.7125 28.2888 27.456 28.9106 27.4569 29.5585C27.4579 30.2065 27.7162 30.8275 28.175 31.285C28.6338 31.7425 29.2556 31.999 29.9035 31.998C30.5515 31.9971 31.1725 31.7388 31.63 31.28L35.26 27.65C36.282 26.6285 37.0927 25.4156 37.6458 24.0807C38.199 22.7458 38.4837 21.315 38.4837 19.87C38.4837 18.425 38.199 16.9942 37.6458 15.6593C37.0927 14.3244 36.282 13.1115 35.26 12.09Z" fill="url(#paint0_linear_5_82)"/>
</g>
<defs>
<linearGradient id="paint0_linear_5_82" x1="19.2405" y1="0.00193849" x2="36.154" y2="16.3539" gradientUnits="userSpaceOnUse">
<stop stop-color="#FF5C28"/>
<stop offset="1" stop-color="#FF8A00"/>
</linearGradient>
<clipPath id="clip0_5_82">
<rect width="125" height="32" fill="white"/>
</clipPath>
</defs>
</svg>
