<svg width="16" height="16" viewBox="0 0 16 16" fill="none" xmlns="http://www.w3.org/2000/svg">
<path d="M4.51137 7.4384L4.58767 6.08596H4.45414L4.01541 7.39255L2.81365 10.4756L1.62142 7.39255L1.18268 6.09742H1.04916L1.12546 7.4384V12H0V4H1.30668L2.29861 6.60172L2.78503 8.24069H2.87087L3.3573 6.60172L4.33015 4H5.63683V12H4.51137V7.4384Z" fill="black"/>
<path d="M9.89358 12L9.42623 9.91404H7.28023L6.81288 12H5.66835L7.61406 4H9.12103L11.0667 12H9.89358ZM8.62506 6.56734L8.41523 5.29513H8.2817L8.07187 6.56734L7.56637 8.75645H9.1401L8.62506 6.56734Z" fill="black"/>
<path d="M16 12H14.6266L13.3294 9.0086H13.2054L11.9274 12H10.6493L12.5473 7.90831L10.7447 4H12.1086L13.2913 6.77364H13.4248L14.6266 4H15.9046L14.0734 7.89685L16 12Z" fill="black"/>
</svg>
