<?xml version="1.0" standalone="no"?>
<!DOCTYPE svg PUBLIC "-//W3C//DTD SVG 20010904//EN"
 "http://www.w3.org/TR/2001/REC-SVG-20010904/DTD/svg10.dtd">
<svg version="1.0" xmlns="http://www.w3.org/2000/svg"
 width="700.000000pt" height="700.000000pt" viewBox="0 0 700.000000 700.000000"
 preserveAspectRatio="xMidYMid meet">
<metadata>
Created by potrace 1.14, written by Peter Selinger 2001-2017
</metadata>
<g transform="translate(0.000000,700.000000) scale(0.100000,-0.100000)"
fill="#000000" stroke="none">
<path d="M3222 6989 c-462 -41 -885 -160 -1294 -365 -359 -179 -646 -390 -938
-690 -539 -553 -867 -1243 -967 -2029 -21 -173 -24 -604 -5 -770 82 -693 332
-1296 760 -1835 108 -135 416 -439 552 -544 469 -362 966 -588 1530 -695 402
-76 881 -76 1280 0 1421 272 2519 1363 2794 2778 45 229 60 396 60 661 0 553
-110 1033 -348 1525 -177 365 -367 635 -650 923 -574 585 -1291 934 -2121
1032 -124 15 -528 21 -653 9z m-847 -1643 c65 -30 112 -78 143 -144 20 -45 23
-65 20 -125 -2 -42 -12 -89 -23 -112 -12 -25 -123 -146 -290 -315 -245 -249
-275 -283 -312 -355 -50 -97 -71 -166 -83 -265 -25 -219 59 -443 225 -598 242
-226 605 -257 883 -75 31 20 210 188 397 373 223 220 364 351 410 382 148 97
304 163 478 199 131 28 350 31 479 5 766 -148 1228 -910 1002 -1653 -33 -111
-121 -284 -196 -385 -34 -46 -176 -198 -322 -344 -292 -292 -312 -306 -426
-307 -171 -1 -301 138 -288 307 3 35 15 81 28 106 14 29 116 139 280 305 278
281 307 320 358 473 23 67 26 94 26 212 0 120 -3 144 -27 215 -90 270 -320
460 -599 495 -154 19 -334 -21 -460 -102 -40 -25 -183 -159 -388 -362 -268
-265 -343 -334 -425 -389 -230 -152 -453 -220 -725 -220 -341 0 -644 122 -888
357 -197 190 -316 403 -373 666 -27 125 -32 358 -10 480 31 176 110 366 214
519 74 109 584 623 651 656 68 34 170 35 241 1z m1680 -131 c50 -25 105 -79
130 -130 15 -30 20 -61 20 -126 0 -78 -3 -90 -30 -134 -43 -70 -97 -106 -221
-149 -380 -131 -677 -343 -1098 -785 -115 -120 -156 -143 -251 -143 -207 0
-340 213 -249 399 49 101 443 486 680 663 198 150 475 299 714 385 111 40 133
45 195 42 43 -2 85 -10 110 -22z m459 -1976 c69 -25 137 -98 162 -171 22 -66
15 -148 -19 -215 -66 -129 -473 -518 -747 -713 -264 -188 -686 -380 -835 -380
-207 0 -339 227 -239 410 40 73 88 107 217 152 239 83 512 238 703 398 91 77
251 233 405 396 81 86 114 114 149 127 63 22 139 21 204 -4z"/>
</g>
</svg>
