<svg width="12" height="12" viewBox="0 0 12 12" fill="none" xmlns="http://www.w3.org/2000/svg">
<circle cx="6" cy="6" r="4.5" stroke="#707070"/>
<path d="M5.96001 4.68C5.66001 4.68 5.44001 4.61333 5.30001 4.48C5.16667 4.34 5.10001 4.16333 5.10001 3.95V3.73C5.10001 3.51667 5.16667 3.34333 5.30001 3.21C5.44001 3.07 5.66001 3 5.96001 3C6.26001 3 6.47667 3.07 6.61001 3.21C6.75001 3.34333 6.82001 3.51667 6.82001 3.73V3.95C6.82001 4.16333 6.75001 4.34 6.61001 4.48C6.47667 4.61333 6.26001 4.68 5.96001 4.68ZM5.22001 5.24H6.70001V8.49H5.22001V5.24Z" fill="#707070"/>
</svg>
