<svg width="16" height="16" viewBox="0 0 16 16" fill="none" xmlns="http://www.w3.org/2000/svg">
<mask id="path-1-inside-1" fill="white">
<path fill-rule="evenodd" clip-rule="evenodd" d="M4.5 10C7.53756 10 10 7.53758 10 4.50002C10 3.92127 9.9106 3.36339 9.74487 2.83945C9.61242 2.42071 9.97726 1.97444 10.3766 2.15723C12.5144 3.13577 13.9995 5.29373 13.9995 7.79856C13.9995 11.2233 11.2233 13.9995 7.79855 13.9995C5.29373 13.9995 3.13578 12.5144 2.15724 10.3766C1.97444 9.97729 2.42071 9.61245 2.83945 9.7449C3.36338 9.91063 3.92125 10 4.5 10Z"/>
</mask>
<path d="M2.83945 9.7449L2.53787 10.6983L2.83945 9.7449ZM9.74487 2.83945L8.79144 3.14104L9.74487 2.83945ZM9 4.50002C9 6.9853 6.98528 9.00002 4.5 9.00002V11C8.08985 11 11 8.08987 11 4.50002H9ZM8.79144 3.14104C8.92667 3.56857 9 4.02478 9 4.50002H11C11 3.81775 10.8945 3.15822 10.6983 2.53787L8.79144 3.14104ZM9.9604 3.0665C11.7557 3.88826 12.9995 5.6992 12.9995 7.79856H14.9995C14.9995 4.88826 13.2731 2.38329 10.7928 1.24796L9.9604 3.0665ZM12.9995 7.79856C12.9995 10.671 10.671 12.9995 7.79855 12.9995V14.9995C11.7755 14.9995 14.9995 11.7756 14.9995 7.79856H12.9995ZM7.79855 12.9995C5.6992 12.9995 3.88826 11.7557 3.0665 9.96042L1.24797 10.7928C2.3833 13.2731 4.88826 14.9995 7.79855 14.9995V12.9995ZM4.5 9.00002C4.02476 9.00002 3.56856 8.92669 3.14103 8.79146L2.53787 10.6983C3.15821 10.8946 3.81774 11 4.5 11V9.00002ZM3.0665 9.96042C3.11373 10.0636 3.13215 10.2004 3.0964 10.3396C3.06312 10.4692 2.99448 10.5581 2.93471 10.6109C2.82518 10.7076 2.67884 10.7429 2.53787 10.6983L3.14103 8.79146C2.58131 8.61442 2.00247 8.76592 1.61083 9.11179C1.19366 9.48019 0.944773 10.1305 1.24797 10.7928L3.0665 9.96042ZM10.6983 2.53787C10.7429 2.67884 10.7076 2.82518 10.6109 2.9347C10.5581 2.99448 10.4691 3.06312 10.3395 3.0964C10.2003 3.13215 10.0636 3.11373 9.9604 3.0665L10.7928 1.24796C10.1304 0.944774 9.48016 1.19366 9.11176 1.61083C8.76589 2.00248 8.61439 2.58132 8.79144 3.14104L10.6983 2.53787Z" fill="black" mask="url(#path-1-inside-1)"/>
</svg>
