<svg width="125" height="32" viewBox="0 0 125 32" fill="none" xmlns="http://www.w3.org/2000/svg">
<g clip-path="url(#clip0_7_241)">
<path fill-rule="evenodd" clip-rule="evenodd" d="M78.26 5.56H81.26L81.23 23.3H83.23V25.77H81.3C80.8847 25.8011 80.4673 25.7491 80.0724 25.6168C79.6774 25.4846 79.3129 25.2749 79 25C78.7342 24.6984 78.5317 24.3465 78.4046 23.9651C78.2775 23.5838 78.2283 23.1807 78.26 22.78V5.56ZM72.48 11.75C73.2866 12.0757 74.0033 12.5901 74.57 13.25C75.1646 13.9305 75.6107 14.7274 75.88 15.59C76.2038 16.5738 76.3626 17.6044 76.35 18.64C76.361 19.6853 76.2023 20.7255 75.88 21.72C75.5988 22.5795 75.1501 23.3748 74.56 24.06C73.9841 24.705 73.2696 25.211 72.47 25.54C71.6167 25.889 70.7018 26.0625 69.78 26.05C68.8484 26.0627 67.9237 25.8893 67.06 25.54C66.2707 25.208 65.5666 24.702 65 24.06C64.4099 23.3748 63.9612 22.5795 63.68 21.72C63.3577 20.7255 63.199 19.6853 63.21 18.64C63.1974 17.6044 63.3562 16.5738 63.68 15.59C63.9522 14.7266 64.4018 13.9296 65 13.25C65.5603 12.5918 66.2701 12.0775 67.07 11.75C67.932 11.3938 68.8574 11.2169 69.79 11.23C70.7129 11.2159 71.6288 11.3929 72.48 11.75ZM73.0119 21.3486C73.1733 20.863 73.2372 20.3504 73.2 19.84V17.44C73.2387 16.9341 73.1754 16.4256 73.014 15.9447C72.8525 15.4637 72.5961 15.02 72.26 14.64C71.5854 14.023 70.7042 13.6809 69.79 13.6809C68.8758 13.6809 67.9946 14.023 67.32 14.64C66.9819 15.0188 66.7243 15.4623 66.5627 15.9436C66.4012 16.4249 66.339 16.934 66.38 17.44V19.84C66.3406 20.3505 66.4035 20.8638 66.5649 21.3497C66.7263 21.8356 66.983 22.2845 67.32 22.67C68.0037 23.2685 68.8814 23.5984 69.79 23.5984C70.6986 23.5984 71.5763 23.2685 72.26 22.67C72.5951 22.2833 72.8506 21.8343 73.0119 21.3486ZM56.55 14.69L54.85 14.34C54.0242 14.2217 53.2351 13.9211 52.54 13.46C52.2863 13.2373 52.0874 12.959 51.9591 12.6467C51.8307 12.3345 51.7763 11.9968 51.8 11.66C51.7788 11.2922 51.8511 10.925 52.0103 10.5928C52.1694 10.2605 52.4101 9.97401 52.71 9.76C53.4687 9.2755 54.3615 9.0444 55.26 9.1C56.1831 9.0697 57.0997 9.26537 57.93 9.67C58.6319 10.0505 59.248 10.5713 59.74 11.2L61.91 9.29C61.185 8.3694 60.2531 7.63279 59.19 7.14C58.0098 6.60714 56.7245 6.34736 55.43 6.38C54.4894 6.36457 53.5519 6.49271 52.65 6.76C51.883 6.98398 51.1665 7.3541 50.54 7.85C49.9634 8.31159 49.5014 8.90026 49.19 9.57C48.8695 10.2798 48.709 11.0513 48.72 11.83C48.6863 12.4949 48.7936 13.1593 49.0349 13.7798C49.2762 14.4002 49.646 14.9626 50.12 15.43C51.3237 16.4215 52.7831 17.0524 54.33 17.25L56.03 17.55C56.8875 17.6603 57.6976 18.0065 58.37 18.55C58.5866 18.7848 58.754 19.0606 58.8622 19.3612C58.9704 19.6618 59.0173 19.981 59 20.3C59.0178 20.7151 58.9426 21.129 58.78 21.5113C58.6173 21.8937 58.3714 22.2349 58.06 22.51C57.268 23.1128 56.2825 23.4046 55.29 23.33C54.3166 23.3465 53.3532 23.1305 52.48 22.7C51.6243 22.2372 50.8695 21.6083 50.26 20.85L48.12 22.85C48.9479 23.9026 50.0147 24.7428 51.232 25.301C52.4493 25.8593 53.7821 26.1194 55.12 26.06C56.1146 26.0763 57.1059 25.9415 58.06 25.66C58.8539 25.4037 59.5908 24.9962 60.23 24.46C60.8269 23.9464 61.2989 23.3034 61.61 22.58C61.926 21.8094 62.0825 20.9828 62.07 20.15C62.1084 19.4898 62.0091 18.8289 61.7784 18.2092C61.5477 17.5894 61.1907 17.0244 60.73 16.55C59.5474 15.5363 58.0947 14.8899 56.55 14.69ZM122 13.9V5.56H125V25.7H122V23.35H121.86C121.576 24.1654 121.036 24.867 120.32 25.35C119.587 25.8282 118.725 26.0724 117.85 26.05C117.045 26.0917 116.241 25.9379 115.508 25.6018C114.775 25.2658 114.134 24.7574 113.64 24.12C112.562 22.5038 112.042 20.5792 112.16 18.64C112.04 16.71 112.561 14.7944 113.64 13.19C114.127 12.5398 114.764 12.0179 115.498 11.6694C116.231 11.321 117.039 11.1564 117.85 11.19C118.727 11.1661 119.59 11.4141 120.32 11.9C121.047 12.3711 121.59 13.0769 121.86 13.9H122ZM121.752 22.0731C121.916 21.7643 122.001 21.4197 122 21.07V16.23C122.004 15.8825 121.921 15.5397 121.756 15.2335C121.592 14.9274 121.352 14.6681 121.06 14.48C120.383 14.0109 119.573 13.7724 118.75 13.8C118.286 13.7784 117.823 13.8564 117.392 14.0289C116.96 14.2014 116.571 14.4644 116.25 14.8C115.931 15.1527 115.685 15.5647 115.525 16.0125C115.366 16.4603 115.296 16.9352 115.32 17.41V19.85C115.276 20.8174 115.609 21.7641 116.25 22.49C116.572 22.8246 116.961 23.0868 117.392 23.2593C117.823 23.4317 118.286 23.5103 118.75 23.49C119.568 23.5149 120.375 23.288 121.06 22.84C121.351 22.6454 121.588 22.3819 121.752 22.0731ZM105.65 11.23C104.704 11.1702 103.767 11.4426 103 12C102.38 12.5089 101.899 13.1658 101.6 13.91H101.46V11.56H98.46V25.73H101.46V16.24C101.445 15.8702 101.53 15.5033 101.706 15.1778C101.882 14.8522 102.143 14.5801 102.46 14.39C102.764 14.1834 103.103 14.0342 103.46 13.95C103.834 13.8429 104.221 13.789 104.61 13.79C106.403 13.79 107.3 14.9 107.3 17.12V25.73H110.3V16.73C110.395 15.2708 109.954 13.827 109.06 12.67C108.639 12.186 108.113 11.8047 107.522 11.5551C106.931 11.3055 106.291 11.1943 105.65 11.23ZM93 11.77C93.7762 12.1182 94.4609 12.6419 95 13.3C95.5383 13.9571 95.9395 14.7153 96.18 15.53C96.4616 16.4226 96.6 17.3541 96.59 18.29V19.4H86.78V19.87C86.7505 20.8656 87.1091 21.8338 87.78 22.57C88.1511 22.9228 88.592 23.194 89.0742 23.3662C89.5564 23.5385 90.0694 23.6079 90.58 23.57C91.3593 23.5966 92.1299 23.3987 92.8 23C93.4109 22.6095 93.9295 22.0909 94.32 21.48L96.08 23.19C95.518 24.0893 94.7186 24.816 93.77 25.29C92.6768 25.8179 91.4737 26.0784 90.26 26.05C89.3184 26.0667 88.383 25.8933 87.51 25.54C86.7207 25.208 86.0166 24.7021 85.45 24.06C84.8599 23.3748 84.4112 22.5795 84.13 21.72C83.8279 20.7216 83.6796 19.683 83.69 18.64C83.6782 17.6067 83.8266 16.5778 84.13 15.59C84.4023 14.7266 84.8519 13.9296 85.45 13.25C86.0074 12.5931 86.7137 12.0788 87.51 11.75C88.3808 11.3881 89.3172 11.2111 90.26 11.23C91.2017 11.2094 92.1366 11.3936 93 11.77ZM86.81 17.44H93.43L93.46 17.16C93.5085 16.2119 93.2059 15.2791 92.61 14.54C92.3223 14.2083 91.9632 13.9461 91.5597 13.7729C91.1561 13.5997 90.7187 13.5201 90.28 13.54C89.7895 13.5382 89.3036 13.6333 88.85 13.82C88.4345 13.9941 88.0599 14.2529 87.75 14.58C87.4477 14.9225 87.2135 15.3196 87.06 15.75C86.8929 16.2324 86.8084 16.7395 86.81 17.25V17.44Z" fill="#0E1118"/>
<path d="M10.7426 8.85806C11.3826 8.18806 12.3026 7.26806 13.4326 6.29806C15.9783 3.96364 19.0116 2.22496 22.3126 1.20806C22.9226 1.0529 23.5692 1.14643 24.1103 1.46805C24.6513 1.78968 25.0424 2.31306 25.1976 2.92306C25.3527 3.53305 25.2592 4.1797 24.9376 4.72074C24.616 5.26179 24.0926 5.6529 23.4826 5.80806C20.8993 6.652 18.5286 8.0437 16.5326 9.88806C15.7113 10.5974 14.9269 11.3484 14.1826 12.1381C13.9026 12.4281 13.6826 12.6681 13.5426 12.8281C13.293 13.1429 12.9921 13.4134 12.6526 13.6281C12.2336 13.8498 11.7583 13.9425 11.2867 13.8944C10.8151 13.8464 10.3682 13.6597 10.0026 13.3581C9.62016 13.0319 9.34977 12.594 9.22956 12.106C9.10936 11.6179 9.14539 11.1045 9.33258 10.6381C9.49332 10.2668 9.72036 9.92792 10.0026 9.63806C10.1626 9.47806 10.4226 9.19806 10.7426 8.85806ZM28.4926 22.3181C28.7748 22.0282 29.0018 21.6893 29.1626 21.3181C29.3498 20.8516 29.3858 20.3382 29.2656 19.8502C29.1454 19.3621 28.875 18.9242 28.4926 18.5981C28.126 18.2943 27.6773 18.1064 27.2037 18.0583C26.73 18.0103 26.2527 18.1041 25.8326 18.3281C25.493 18.5427 25.1921 18.8132 24.9426 19.1281C24.8026 19.2881 24.5826 19.5281 24.3026 19.8181C23.5755 20.6201 22.8078 21.3844 22.0026 22.1081C19.9928 23.9596 17.6042 25.3518 15.0026 26.1881C14.3926 26.3445 13.8697 26.7369 13.549 27.2789C13.2284 27.8209 13.1361 28.4681 13.2926 29.0781C13.4491 29.6881 13.8414 30.2109 14.3834 30.5316C14.9254 30.8523 15.5726 30.9445 16.1826 30.7881C19.4835 29.7712 22.5168 28.0325 25.0626 25.6981C26.1826 24.6981 27.1126 23.8081 27.7526 23.1381C28.0626 22.7981 28.3226 22.5181 28.4926 22.3181ZM35.2626 12.0881C34.2411 11.0661 33.0282 10.2553 31.6933 9.70222C30.3584 9.1491 28.9276 8.86441 27.4826 8.86441C26.0376 8.86441 24.6068 9.1491 23.2719 9.70222C21.937 10.2553 20.7241 11.0661 19.7026 12.0881L15.3326 16.4581C14.1842 17.6051 12.6272 18.249 11.004 18.2481C9.38092 18.2471 7.82464 17.6014 6.67758 16.4531C5.53052 15.3047 4.88663 13.7476 4.88757 12.1245C4.88851 10.5014 5.53419 8.94512 6.68258 7.79806L10.3126 4.16806C10.5391 3.94087 10.7187 3.67129 10.841 3.37471C10.9634 3.07812 11.0261 2.76035 11.0256 2.43952C11.0252 2.11869 10.9615 1.8011 10.8383 1.50487C10.7151 1.20865 10.5348 0.939587 10.3076 0.713057C10.0804 0.486526 9.81081 0.306962 9.51423 0.184616C9.21765 0.06227 8.89987 -0.000461738 8.57905 2.55854e-06C8.25822 0.000466855 7.94063 0.0641181 7.6444 0.187322C7.34817 0.310526 7.07911 0.49087 6.85258 0.718057L3.22258 4.34806C2.2009 5.36974 1.39045 6.58266 0.837522 7.91755C0.28459 9.25245 1.07652e-08 10.6832 0 12.1281C-1.07652e-08 13.5729 0.28459 15.0037 0.837522 16.3386C1.39045 17.6735 2.2009 18.8864 3.22258 19.9081C4.24427 20.9297 5.45718 21.7402 6.79208 22.2931C8.12697 22.846 9.5577 23.1306 11.0026 23.1306C12.4475 23.1306 13.8782 22.846 15.2131 22.2931C16.548 21.7402 17.7609 20.9297 18.7826 19.9081L23.1526 15.5381C24.3123 14.4545 25.8476 13.8639 27.4346 13.8908C29.0215 13.9178 30.5359 14.5602 31.6582 15.6824C32.7805 16.8047 33.4229 18.3191 33.4498 19.9061C33.4768 21.493 32.8861 23.0283 31.8026 24.1881L28.1726 27.8281C27.7151 28.2869 27.4586 28.9087 27.4595 29.5566C27.4605 30.2045 27.7188 30.8256 28.1776 31.2831C28.6364 31.7406 29.2582 31.997 29.9061 31.9961C30.5541 31.9952 31.1751 31.7369 31.6326 31.2781L35.2626 27.6481C36.2846 26.6265 37.0953 25.4137 37.6484 24.0788C38.2015 22.7438 38.4862 21.313 38.4862 19.8681C38.4862 18.4231 38.2015 16.9923 37.6484 15.6573C37.0953 14.3224 36.2846 13.1096 35.2626 12.0881V12.0881Z" fill="url(#paint0_linear_7_241)"/>
</g>
<defs>
<linearGradient id="paint0_linear_7_241" x1="19.2431" y1="6.27479e-07" x2="36.1565" y2="16.3519" gradientUnits="userSpaceOnUse">
<stop stop-color="#FF5C28"/>
<stop offset="1" stop-color="#FF8A00"/>
</linearGradient>
<clipPath id="clip0_7_241">
<rect width="125" height="32" fill="white"/>
</clipPath>
</defs>
</svg>
